<svg width="14" height="20" viewBox="0 0 14 20" fill="none" xmlns="http://www.w3.org/2000/svg">
<path d="M0 20V17.3876C1.19851 16.3951 2.36422 15.412 3.49718 14.4382C4.63015 13.4644 5.64137 12.5 6.53089 11.5449C7.4204 10.5899 8.13201 9.65823 8.66571 8.74998C9.19942 7.84174 9.46628 6.95692 9.46628 6.0955C9.46628 5.29025 9.24624 4.57865 8.80616 3.96067C8.36609 3.34269 7.64044 3.0337 6.6292 3.0337C5.59924 3.0337 4.82209 3.37078 4.29775 4.04494C3.7734 4.7191 3.51123 5.53369 3.51123 6.48875H0.0280898C0.0655431 5.0468 0.383892 3.84363 0.983144 2.87921C1.5824 1.91479 2.37827 1.19382 3.37078 0.716291C4.36329 0.238761 5.47751 0 6.71347 0C8.71722 0 10.2762 0.547746 11.3904 1.64326C12.5047 2.73876 13.0618 4.15729 13.0618 5.89887C13.0618 6.98501 12.8136 8.04305 12.3174 9.07302C11.8211 10.103 11.1704 11.0955 10.3652 12.0505C9.5599 13.0056 8.68913 13.8998 7.7528 14.7331C6.81646 15.5665 5.90823 16.3389 5.02808 17.0505H13.5393V20H0Z" fill="#262626"/>
</svg>
