<svg width="66" height="16" viewBox="0 0 66 16" fill="none" xmlns="http://www.w3.org/2000/svg">
<path fill-rule="evenodd" clip-rule="evenodd" d="M3.57086 14.454C4.68654 15.1078 5.99052 15.4347 7.48283 15.4347C8.96092 15.4347 10.2613 15.1078 11.3841 14.454C12.5069 13.8002 13.381 12.8942 14.0063 11.7359C14.6317 10.5776 14.9443 9.23807 14.9443 7.71733C14.9443 6.1966 14.6317 4.85709 14.0063 3.69878C13.381 2.54046 12.5069 1.63443 11.3841 0.980655C10.2613 0.326882 8.96092 0 7.48283 0C5.99052 0 4.68654 0.326882 3.57086 0.980655C2.45519 1.63443 1.58113 2.54046 0.948677 3.69878C0.316223 4.85709 0 6.1966 0 7.71733C0 9.23807 0.316223 10.5776 0.948677 11.7359C1.58113 12.8942 2.45519 13.8002 3.57086 14.454ZM10.8831 11.576C10.0375 12.514 8.90407 12.983 7.48283 12.983C6.06158 12.983 4.9246 12.514 4.07185 11.576C3.2191 10.638 2.79274 9.35176 2.79274 7.71733C2.79274 6.0829 3.2191 4.79669 4.07185 3.85867C4.9246 2.92064 6.06158 2.45164 7.48283 2.45164C8.90407 2.45164 10.0375 2.92064 10.8831 3.85867C11.7288 4.79669 12.1516 6.0829 12.1516 7.71733C12.1516 9.35176 11.7288 10.638 10.8831 11.576ZM17.3533 0.255823H22.8322C24.0261 0.255823 25.0103 0.458348 25.7848 0.863403C26.5594 1.26846 27.1386 1.81563 27.5223 2.50493C27.906 3.19424 28.0979 3.95815 28.0979 4.79668C28.0979 5.70628 27.8599 6.5377 27.3837 7.29096C26.9076 8.04422 26.165 8.59139 25.1559 8.93249L28.2471 15.1788H25.1133L22.3419 9.29491H20.0821V15.1788H17.3533V0.255823ZM22.6617 7.29096H20.0821V2.53691H22.6403C23.5784 2.53691 24.257 2.7501 24.6763 3.17647C25.0955 3.60284 25.3052 4.17133 25.3052 4.88196C25.3052 5.60679 25.092 6.1895 24.6656 6.63008C24.2392 7.07067 23.5713 7.29096 22.6617 7.29096ZM30.6348 0.255823H40.3774V2.45164H33.3636V6.54481H39.7379V8.67667H33.3636V12.983H40.3774V15.1788H30.6348V0.255823ZM48.9475 0.255823H42.957V15.1788H49.1607C50.724 15.1788 51.9321 14.7951 52.7848 14.0276C53.6376 13.2602 54.0639 12.2866 54.0639 11.107C54.0639 10.2116 53.7868 9.42637 53.2325 8.75128C52.6782 8.07619 51.9747 7.65338 51.122 7.48283C51.8468 7.28385 52.4615 6.90367 52.966 6.34228C53.4706 5.78089 53.7229 5.03119 53.7229 4.09317C53.7229 2.97038 53.3142 2.05014 52.497 1.33241C51.6798 0.614683 50.4966 0.255823 48.9475 0.255823ZM45.6857 6.52349H48.5424C49.3099 6.52349 49.8997 6.34584 50.3119 5.99052C50.724 5.63521 50.9301 5.13068 50.9301 4.4769C50.9301 3.85156 50.7276 3.35768 50.3225 2.99526C49.9175 2.63284 49.3099 2.45164 48.4998 2.45164H45.6857V6.52349ZM48.7343 12.9617H45.6857V8.57007H48.6917C49.4876 8.57007 50.12 8.76905 50.589 9.167C51.058 9.56494 51.2925 10.1121 51.2925 10.8085C51.2925 11.4907 51.0687 12.0201 50.621 12.3968C50.1733 12.7734 49.5444 12.9617 48.7343 12.9617ZM56.409 0.255823H59.1378V15.1788H56.409V0.255823ZM62.5753 0.164569C62.7141 0.164569 62.8339 0.214963 62.9347 0.315754C63.0355 0.416545 63.0858 0.537987 63.0858 0.680085C63.0858 0.815574 63.0363 0.933712 62.9371 1.0345C62.838 1.13529 62.719 1.18569 62.5802 1.18569C62.4381 1.18569 62.3167 1.13529 62.2159 1.0345C62.1151 0.933712 62.0647 0.81227 62.0647 0.670172C62.0647 0.534683 62.1151 0.416545 62.2159 0.315754C62.3167 0.214963 62.4365 0.164569 62.5753 0.164569ZM65.5048 0.164569C65.6469 0.164569 65.765 0.212485 65.8592 0.308319C65.9534 0.404152 66.0005 0.524769 66.0005 0.670172C66.0005 0.815574 65.9501 0.937843 65.8493 1.03698C65.7485 1.13612 65.6254 1.18569 65.48 1.18569C65.3313 1.18569 65.2107 1.14108 65.1182 1.05185C65.0256 0.962628 64.9794 0.845316 64.9794 0.699913C64.9794 0.551205 65.0298 0.424806 65.1306 0.320711C65.2313 0.216616 65.3561 0.164569 65.5048 0.164569ZM62.9421 3.19075C62.843 3.09326 62.7223 3.04452 62.5802 3.04452C62.4348 3.04452 62.3134 3.09326 62.2159 3.19075C62.1184 3.28824 62.0697 3.40803 62.0697 3.55012C62.0697 3.69553 62.1193 3.8178 62.2184 3.91693C62.3175 4.01607 62.4381 4.06564 62.5802 4.06564C62.7223 4.06564 62.843 4.01525 62.9421 3.91446C63.0412 3.81367 63.0908 3.69057 63.0908 3.54517C63.0908 3.40637 63.0412 3.28824 62.9421 3.19075ZM65.4701 3.04948C65.6122 3.04287 65.7345 3.08913 65.8369 3.18827C65.9394 3.28741 65.9906 3.40968 65.9906 3.55508C65.9906 3.70048 65.9394 3.82275 65.8369 3.92189C65.7345 4.02103 65.6089 4.0706 65.4602 4.0706C65.133 4.0706 64.9695 3.90702 64.9695 3.57987C64.9695 3.43116 65.0157 3.30724 65.1083 3.2081C65.2008 3.10896 65.3214 3.05609 65.4701 3.04948Z" fill="#262626"/>
</svg>
