<svg width="27" height="36" viewBox="0 0 27 36" fill="none" xmlns="http://www.w3.org/2000/svg">
<path fill-rule="evenodd" clip-rule="evenodd" d="M7.40388 28.5199C8.7331 30.4135 10.2905 32.6322 12.1126 35.2737C12.783 36.2421 14.217 36.2422 14.8874 35.2737C16.7095 32.6322 18.2669 30.4135 19.5961 28.5199C25.7198 19.7961 27 17.9723 27 13.5C27 6.04413 20.9559 0 13.5 0C6.04413 0 0 6.04413 0 13.5C0 17.9723 1.28023 19.7961 7.40388 28.5199ZM19.125 13.5C19.125 16.6066 16.6066 19.125 13.5 19.125C10.3934 19.125 7.875 16.6066 7.875 13.5C7.875 10.3934 10.3934 7.875 13.5 7.875C16.6066 7.875 19.125 10.3934 19.125 13.5Z" fill="#262626"/>
</svg>
