<svg width="18" height="16" viewBox="0 0 18 16" fill="none" xmlns="http://www.w3.org/2000/svg">
<path d="M16.5037 9.41617L17.9809 2.9162C18.0876 2.44689 17.7309 1.99999 17.2496 1.99999H4.97522L4.68879 0.599684C4.61741 0.250655 4.31029 0 3.95401 0H0.749996C0.335779 0 0 0.335779 0 0.749996V1.24999C0 1.66421 0.335779 1.99999 0.749996 1.99999H2.93383L5.12906 12.7323C4.60388 13.0343 4.24998 13.6006 4.24998 14.2499C4.24998 15.2164 5.03347 15.9999 5.99997 15.9999C6.96646 15.9999 7.74996 15.2164 7.74996 14.2499C7.74996 13.7601 7.54849 13.3176 7.22421 12.9999H13.7756C13.4514 13.3176 13.2499 13.7601 13.2499 14.2499C13.2499 15.2164 14.0334 15.9999 14.9999 15.9999C15.9664 15.9999 16.7499 15.2164 16.7499 14.2499C16.7499 13.557 16.3472 12.9583 15.7631 12.6748L15.9355 11.9162C16.0421 11.4468 15.6854 10.9999 15.2041 10.9999H6.81612L6.61159 9.99994H15.7723C16.1225 9.99994 16.4261 9.75763 16.5037 9.41617Z" fill="#262626"/>
</svg>
