<svg width="122" height="29" viewBox="0 0 122 29" fill="none" xmlns="http://www.w3.org/2000/svg">
<path fill-rule="evenodd" clip-rule="evenodd" d="M6.60065 26.7179C8.66295 27.9263 11.0733 28.5306 13.8318 28.5306C16.564 28.5306 18.9678 27.9263 21.0433 26.7179C23.1187 25.5094 24.7344 23.8346 25.8903 21.6935C27.0462 19.5524 27.6242 17.0763 27.6242 14.2653C27.6242 11.4542 27.0462 8.97821 25.8903 6.83709C24.7344 4.69597 23.1187 3.0212 21.0433 1.81272C18.9678 0.604232 16.564 0 13.8318 0C11.0733 0 8.66295 0.604232 6.60065 1.81272C4.53835 3.0212 2.92268 4.69597 1.75361 6.83709C0.584529 8.97821 0 11.4542 0 14.2653C0 17.0763 0.584529 19.5524 1.75361 21.6935C2.92268 23.8346 4.53835 25.5094 6.60065 26.7179ZM20.1172 21.3979C18.5541 23.1318 16.4589 23.9988 13.8318 23.9988C11.2047 23.9988 9.10299 23.1318 7.52671 21.3979C5.95043 19.664 5.1623 17.2865 5.1623 14.2653C5.1623 11.2441 5.95043 8.86655 7.52671 7.13264C9.10299 5.39873 11.2047 4.53179 13.8318 4.53179C16.4589 4.53179 18.5541 5.39873 20.1172 7.13264C21.6803 8.86655 22.4619 11.2441 22.4619 14.2653C22.4619 17.2865 21.6803 19.664 20.1172 21.3979ZM32.0772 0.472882H42.2047C44.4115 0.472882 46.2308 0.847244 47.6626 1.59598C49.0944 2.34471 50.1649 3.35614 50.8743 4.63031C51.5836 5.90447 51.9382 7.31653 51.9382 8.86654C51.9382 10.5479 51.4982 12.0848 50.6181 13.4771C49.738 14.8695 48.3654 15.881 46.5001 16.5115L52.2141 28.0577H46.4213L41.2984 17.1814H37.1213V28.0577H32.0772V0.472882ZM41.8895 13.4771H37.1213V4.68942H41.8501C43.584 4.68942 44.8384 5.08348 45.6134 5.87162C46.3884 6.65976 46.7759 7.7106 46.7759 9.02417C46.7759 10.364 46.3819 11.4411 45.5937 12.2555C44.8056 13.0699 43.5709 13.4771 41.8895 13.4771ZM56.6277 0.472882H74.6366V4.53179H61.6717V12.0979H73.4544V16.0386H61.6717V23.9988H74.6366V28.0577H56.6277V0.472882ZM90.4781 0.472882H79.4048V28.0577H90.8722C93.7621 28.0577 95.9951 27.3484 97.5714 25.9297C99.1477 24.5111 99.9358 22.7115 99.9358 20.531C99.9358 18.8759 99.4235 17.4244 98.3989 16.1765C97.3743 14.9286 96.0739 14.1471 94.4976 13.8318C95.8375 13.464 96.9737 12.7613 97.9063 11.7235C98.839 10.6858 99.3053 9.30003 99.3053 7.56612C99.3053 5.49068 98.55 3.78963 97.0394 2.46293C95.5288 1.13622 93.3417 0.472882 90.4781 0.472882ZM84.4489 12.0585H89.7294C91.1481 12.0585 92.2383 11.7301 93.0002 11.0733C93.7621 10.4165 94.143 9.48392 94.143 8.27544C94.143 7.1195 93.7686 6.20658 93.0199 5.53666C92.2712 4.86674 91.1481 4.53179 89.6506 4.53179H84.4489V12.0585ZM90.0841 23.9594H84.4489V15.8416H90.0053C91.4765 15.8416 92.6455 16.2093 93.5125 16.9449C94.3794 17.6805 94.8129 18.692 94.8129 19.9793C94.8129 21.2403 94.3991 22.2189 93.5716 22.9151C92.744 23.6113 91.5815 23.9594 90.0841 23.9594ZM104.271 0.472882H109.315V28.0577H104.271V0.472882ZM115.669 0.304201C115.925 0.304201 116.147 0.397354 116.333 0.583663C116.519 0.769972 116.613 0.994455 116.613 1.25712C116.613 1.50757 116.521 1.72594 116.338 1.91225C116.154 2.09856 115.934 2.19171 115.678 2.19171C115.415 2.19171 115.191 2.09856 115.004 1.91225C114.818 1.72594 114.725 1.50146 114.725 1.23879C114.725 0.988347 114.818 0.769972 115.004 0.583663C115.191 0.397354 115.412 0.304201 115.669 0.304201ZM121.084 0.304201C121.347 0.304201 121.565 0.392773 121.739 0.569919C121.913 0.747065 122 0.970021 122 1.23879C122 1.50757 121.907 1.73358 121.721 1.91683C121.534 2.10009 121.307 2.19171 121.038 2.19171C120.763 2.19171 120.54 2.10925 120.369 1.94432C120.198 1.77939 120.113 1.56254 120.113 1.29377C120.113 1.01889 120.206 0.785243 120.392 0.592825C120.578 0.400408 120.809 0.304201 121.084 0.304201ZM116.347 5.89802C116.164 5.71782 115.941 5.62772 115.678 5.62772C115.409 5.62772 115.185 5.71782 115.004 5.89802C114.824 6.07822 114.734 6.29965 114.734 6.56231C114.734 6.83109 114.826 7.0571 115.009 7.24035C115.192 7.42361 115.415 7.51523 115.678 7.51523C115.941 7.51523 116.164 7.42208 116.347 7.23577C116.53 7.04946 116.622 6.82192 116.622 6.55315C116.622 6.29659 116.53 6.07822 116.347 5.89802ZM121.02 5.63688C121.282 5.62466 121.508 5.71018 121.698 5.89344C121.887 6.07669 121.982 6.3027 121.982 6.57147C121.982 6.84025 121.887 7.06626 121.698 7.24951C121.508 7.43277 121.276 7.52439 121.001 7.52439C120.397 7.52439 120.094 7.22203 120.094 6.61729C120.094 6.34241 120.18 6.11334 120.351 5.93009C120.522 5.74683 120.745 5.6491 121.02 5.63688Z" fill="#262626"/>
</svg>
