<svg width="19" height="10" viewBox="0 0 19 10" fill="none" xmlns="http://www.w3.org/2000/svg">
<path d="M0.678556 3.0535H18.321C18.6958 3.0535 18.9996 2.74972 18.9996 2.37495V0.678556C18.9996 0.303781 18.6958 0 18.321 0H0.678556C0.303781 0 0 0.303781 0 0.678556V2.37495C0 2.74972 0.303781 3.0535 0.678556 3.0535Z" fill="#262626"/>
<path d="M0.519519 9.83896H14.027C14.314 9.83896 14.5465 9.53518 14.5465 9.16041V7.46402C14.5465 7.08924 14.314 6.78546 14.027 6.78546H0.519519C0.232582 6.78546 0 7.08924 0 7.46402V9.16041C0 9.53518 0.232582 9.83896 0.519519 9.83896Z" fill="#262626"/>
</svg>
