<svg width="16" height="16" viewBox="0 0 16 16" fill="none" xmlns="http://www.w3.org/2000/svg">
<path fill-rule="evenodd" clip-rule="evenodd" d="M12.6643 10.7176L15.7796 13.8329C16.0702 14.1267 16.0702 14.6016 15.7765 14.8953L14.8922 15.7796C14.6016 16.0733 14.1267 16.0733 13.8329 15.7796L10.7176 12.6643C10.577 12.5237 10.4989 12.3331 10.4989 12.1331V11.6238C9.3959 12.4862 8.00855 12.9987 6.49933 12.9987C2.90907 12.9987 0 10.0896 0 6.49933C0 2.90907 2.90907 0 6.49933 0C10.0896 0 12.9987 2.90907 12.9987 6.49933C12.9987 8.00855 12.4862 9.3959 11.6238 10.4989H12.1331C12.3331 10.4989 12.5237 10.577 12.6643 10.7176ZM2.49974 6.49933C2.49974 8.7116 4.29018 10.4989 6.49933 10.4989C8.7116 10.4989 10.4989 8.70848 10.4989 6.49933C10.4989 4.28706 8.70848 2.49974 6.49933 2.49974C4.28706 2.49974 2.49974 4.29018 2.49974 6.49933Z" fill="#262626"/>
</svg>
