<svg width="15" height="13" viewBox="0 0 15 13" fill="none" xmlns="http://www.w3.org/2000/svg">
<path fill-rule="evenodd" clip-rule="evenodd" d="M8.18521 4.69444V1.08333C8.18521 0.485017 8.67023 0 9.26855 0H13.8426C14.4409 0 14.9259 0.485017 14.9259 1.08333V4.69444C14.9259 5.29276 14.4409 5.77778 13.8426 5.77778H9.26855C8.67023 5.77778 8.18521 5.29276 8.18521 4.69444ZM6.74077 8.30556V11.9167C6.74077 12.515 6.25575 13 5.65739 13H1.08333C0.485017 13 0 12.515 0 11.9167V8.30556C0 7.70724 0.485017 7.22222 1.08333 7.22222H5.65744C6.25575 7.22222 6.74077 7.70724 6.74077 8.30556ZM6.74077 4.69444V1.08333C6.74077 0.485017 6.25575 0 5.65744 0H1.08333C0.485017 0 0 0.485017 0 1.08333V4.69444C0 5.29276 0.485017 5.77778 1.08333 5.77778H5.65739C6.25575 5.77778 6.74077 5.29276 6.74077 4.69444ZM13.8426 13H9.26855C8.67023 13 8.18521 12.515 8.18521 11.9167V8.30556C8.18521 7.70724 8.67023 7.22222 9.26855 7.22222H13.8426C14.4409 7.22222 14.9259 7.70724 14.9259 8.30556V11.9167C14.9259 12.515 14.4409 13 13.8426 13Z" fill="white"/>
</svg>
